<svg width="24" height="24" viewBox="0 0 24 24" fill="none" xmlns="http://www.w3.org/2000/svg">
<path d="M6.55591 3.305C6.81137 3.04967 7.11462 2.84716 7.44834 2.70903C7.78207 2.57091 8.13973 2.49988 8.50091 2.5H11.2509V8H8.50091C7.95688 8.00018 7.42502 7.83899 6.97262 7.53683C6.52022 7.23467 6.1676 6.80511 5.95938 6.3025C5.75117 5.79989 5.69671 5.24682 5.80289 4.71325C5.90908 4.17968 6.17114 3.6896 6.55591 3.305ZM15.5009 8H12.7509V2.5H15.5009C16.2303 2.5 16.9297 2.78973 17.4455 3.30546C17.9612 3.82118 18.2509 4.52065 18.2509 5.25C18.2509 5.97935 17.9612 6.67882 17.4455 7.19454C16.9297 7.71027 16.2303 8 15.5009 8ZM15.5009 9.5C14.7716 9.5 14.0721 9.78973 13.5564 10.3055C13.0406 10.8212 12.7509 11.5207 12.7509 12.25C12.7509 12.9793 13.0406 13.6788 13.5564 14.1945C14.0721 14.7103 14.7716 15 15.5009 15C16.2303 15 16.9297 14.7103 17.4455 14.1945C17.9612 13.6788 18.2509 12.9793 18.2509 12.25C18.2509 11.5207 17.9612 10.8212 17.4455 10.3055C16.9297 9.78973 16.2303 9.5 15.5009 9.5ZM6.55591 17.306C6.81128 17.0505 7.1145 16.8478 7.44823 16.7095C7.78196 16.5712 8.13966 16.5 8.50091 16.5H11.2509V19.25C11.2508 19.7022 11.1391 20.1473 10.9259 20.5461C10.7126 20.9448 10.4043 21.2848 10.0283 21.5359C9.65228 21.7871 9.22014 21.9416 8.77013 21.9859C8.32013 22.0301 7.86616 21.9628 7.44841 21.7897C7.03067 21.6166 6.66204 21.3432 6.37517 20.9937C6.08831 20.6442 5.89206 20.2293 5.8038 19.7858C5.71555 19.3424 5.73801 18.884 5.8692 18.4512C6.00039 18.0185 6.23625 17.6258 6.55591 17.306ZM8.50091 9.5C7.77157 9.5 7.0721 9.78973 6.55637 10.3055C6.04065 10.8212 5.75091 11.5207 5.75091 12.25C5.75091 12.9793 6.04065 13.6788 6.55637 14.1945C7.0721 14.7103 7.77157 15 8.50091 15H11.2509V9.5H8.50091Z" fill="#757575"/>
</svg>
