<svg width="24" height="24" viewBox="0 0 24 24" fill="none" xmlns="http://www.w3.org/2000/svg">
<path d="M9.84 12.4006C9.84 12.4906 9.84 12.4906 9.77 12.4906H8C8.33 11.4906 8.68 10.4306 9 9.39062C9 9.47062 9 9.55062 9.07 9.63062C9.14 9.71062 9.16 9.96062 9.2 10.1206L9.38 10.6806C9.38 10.8706 9.49 11.0506 9.55 11.2406L9.74 11.8106L9.84 12.4006Z" fill="#757575"/>
<path d="M17.08 11.77C17.0245 11.6008 16.9247 11.4494 16.7911 11.3316C16.6575 11.2138 16.4949 11.1339 16.32 11.1C16.1379 11.0701 15.9521 11.0701 15.77 11.1C15.6352 11.1262 15.508 11.182 15.3973 11.2633C15.2867 11.3445 15.1954 11.4493 15.13 11.57C15.0287 11.7496 14.9609 11.9461 14.93 12.15H17C17.1 12.15 17.13 12.15 17.12 12.01C17.1165 11.9287 17.1031 11.8481 17.08 11.77ZM17.08 11.77C17.0245 11.6008 16.9247 11.4494 16.7911 11.3316C16.6575 11.2138 16.4949 11.1339 16.32 11.1C16.1379 11.0701 15.9521 11.0701 15.77 11.1C15.6352 11.1262 15.508 11.182 15.3973 11.2633C15.2867 11.3445 15.1954 11.4493 15.13 11.57C15.0287 11.7496 14.9609 11.9461 14.93 12.15H17C17.1 12.15 17.13 12.15 17.12 12.01C17.1165 11.9287 17.1031 11.8481 17.08 11.77ZM17.08 11.77C17.0245 11.6008 16.9247 11.4494 16.7911 11.3316C16.6575 11.2138 16.4949 11.1339 16.32 11.1C16.1379 11.0701 15.9521 11.0701 15.77 11.1C15.6352 11.1262 15.508 11.182 15.3973 11.2633C15.2867 11.3445 15.1954 11.4493 15.13 11.57C15.0287 11.7496 14.9609 11.9461 14.93 12.15H17C17.1 12.15 17.13 12.15 17.12 12.01C17.1165 11.9287 17.1031 11.8481 17.08 11.77ZM17.08 11.77C17.0245 11.6008 16.9247 11.4494 16.7911 11.3316C16.6575 11.2138 16.4949 11.1339 16.32 11.1C16.1379 11.0701 15.9521 11.0701 15.77 11.1C15.6352 11.1262 15.508 11.182 15.3973 11.2633C15.2867 11.3445 15.1954 11.4493 15.13 11.57C15.0287 11.7496 14.9609 11.9461 14.93 12.15H17C17.1 12.15 17.13 12.15 17.12 12.01C17.1165 11.9287 17.1031 11.8481 17.08 11.77ZM17 2H7C5.67392 2 4.40215 2.52678 3.46447 3.46447C2.52678 4.40215 2 5.67392 2 7V17C2 18.3261 2.52678 19.5979 3.46447 20.5355C4.40215 21.4732 5.67392 22 7 22H17C18.3261 22 19.5979 21.4732 20.5355 20.5355C21.4732 19.5979 22 18.3261 22 17V7C22 5.67392 21.4732 4.40215 20.5355 3.46447C19.5979 2.52678 18.3261 2 17 2ZM12.73 16H11.11C11.0822 16.0042 11.0539 16 11.0285 15.9879C11.0032 15.9757 10.9821 15.9563 10.968 15.932C10.9586 15.916 10.9525 15.8984 10.95 15.88C10.87 15.63 10.78 15.39 10.7 15.14C10.62 14.89 10.5 14.57 10.41 14.28C10.41 14.12 10.28 14.1 10.14 14.1H7.62C7.51 14.1 7.51 14.1 7.47 14.22C7.43 14.34 7.37 14.55 7.31 14.72L7.15 15.24L6.94 15.85C6.94539 15.8764 6.94539 15.9036 6.94 15.93C6.94 16.06 6.78 16.04 6.68 16.04H5.39C5.24 16.04 5.19 15.97 5.25 15.83C5.31 15.69 5.36 15.53 5.41 15.39L5.62 14.75L6.01 13.65C6.12 13.35 6.22 13.04 6.32 12.73C6.42 12.42 6.51 12.2 6.61 11.93L6.82 11.3L7.19 10.3L7.49 9.42C7.59 9.14 7.69 8.86 7.78 8.57C7.79405 8.43369 7.79405 8.29631 7.78 8.16C7.78 7.95 7.78 7.95 7.99 7.95H9.8C9.96 7.95 9.95 7.95 10 8.1C10.05 8.25 10.18 8.59 10.26 8.83C10.34 9.07 10.41 9.25 10.48 9.45L10.72 10.1L10.96 10.8C11.06 11.07 11.16 11.33 11.25 11.6L11.51 12.32C11.59 12.56 11.68 12.8 11.77 13.05C11.86 13.3 11.89 13.42 11.96 13.6C12.03 13.78 12.1 14 12.18 14.2C12.26 14.4 12.31 14.58 12.38 14.77L12.67 15.58L12.79 15.93C12.83 15.92 12.8 16 12.73 16ZM18.73 13C18.7347 13.09 18.7347 13.18 18.73 13.27C18.73 13.36 18.58 13.39 18.49 13.39H14.96C14.996 13.718 15.14 14.024 15.37 14.26C15.7867 14.5159 16.2596 14.6661 16.7477 14.6975C17.2357 14.7289 17.724 14.6405 18.17 14.44C18.25 14.44 18.29 14.44 18.29 14.52V15.65C18.29 15.83 18.22 15.85 18.07 15.91L17.71 16.02C17.5957 16.0537 17.4785 16.0771 17.36 16.09C17.11 16.09 16.86 16.16 16.61 16.17C16.36 16.18 16.27 16.17 16.1 16.17H16C15.8 16.17 15.59 16.17 15.4 16.1C14.8484 15.9898 14.3449 15.7102 13.96 15.3C13.7158 15.0475 13.5253 14.7481 13.4 14.42C13.2988 14.1805 13.2315 13.9281 13.2 13.67C13.1857 13.3768 13.1857 13.0832 13.2 12.79C13.215 12.429 13.283 12.072 13.4 11.73C13.4983 11.4454 13.6364 11.176 13.81 10.93C14.0378 10.5867 14.347 10.305 14.71 10.11C14.8667 10.0193 15.03 9.94267 15.2 9.88C15.3846 9.83607 15.5716 9.80268 15.76 9.78C15.93 9.77 16.1 9.77 16.27 9.78C16.5207 9.784 16.7673 9.81733 17.01 9.88C17.23 9.942 17.44 10.0287 17.64 10.14C17.948 10.3166 18.2034 10.572 18.38 10.88C18.48 11.06 18.56 11.24 18.64 11.42C18.6827 11.5473 18.716 11.6773 18.74 11.81C18.8294 12.2007 18.8396 12.6053 18.77 13H18.73ZM16.28 11.15C16.0979 11.1201 15.9121 11.1201 15.73 11.15C15.5952 11.1762 15.468 11.232 15.3573 11.3133C15.2467 11.3945 15.1554 11.4993 15.09 11.62C14.9887 11.7996 14.9209 11.9961 14.89 12.2H17C17.1 12.2 17.13 12.2 17.12 12.06C17.1117 11.971 17.0915 11.8836 17.06 11.8C17.0107 11.6277 16.916 11.4719 16.7858 11.3487C16.6556 11.2256 16.4947 11.1397 16.32 11.1L16.28 11.15ZM17.04 11.82C16.9845 11.6508 16.8847 11.4994 16.7511 11.3816C16.6175 11.2638 16.4549 11.1839 16.28 11.15C16.0979 11.1201 15.9121 11.1201 15.73 11.15C15.5952 11.1762 15.468 11.232 15.3573 11.3133C15.2467 11.3945 15.1554 11.4993 15.09 11.62C14.9887 11.7996 14.9209 11.9961 14.89 12.2H17C17.1 12.2 17.13 12.2 17.12 12.06C17.12 11.9613 17.1067 11.8647 17.08 11.77L17.04 11.82ZM17.04 11.82C16.9845 11.6508 16.8847 11.4994 16.7511 11.3816C16.6175 11.2638 16.4549 11.1839 16.28 11.15C16.0979 11.1201 15.9121 11.1201 15.73 11.15C15.5952 11.1762 15.468 11.232 15.3573 11.3133C15.2467 11.3945 15.1554 11.4993 15.09 11.62C14.9887 11.7996 14.9209 11.9961 14.89 12.2H17C17.1 12.2 17.13 12.2 17.12 12.06C17.12 11.9613 17.1067 11.8647 17.08 11.77L17.04 11.82ZM17.04 11.82C16.9845 11.6508 16.8847 11.4994 16.7511 11.3816C16.6175 11.2638 16.4549 11.1839 16.28 11.15C16.0979 11.1201 15.9121 11.1201 15.73 11.15C15.5952 11.1762 15.468 11.232 15.3573 11.3133C15.2467 11.3945 15.1554 11.4993 15.09 11.62C14.9887 11.7996 14.9209 11.9961 14.89 12.2H17C17.1 12.2 17.13 12.2 17.12 12.06C17.12 11.9613 17.1067 11.8647 17.08 11.77L17.04 11.82ZM17.04 11.82C16.9845 11.6508 16.8847 11.4994 16.7511 11.3816C16.6175 11.2638 16.4549 11.1839 16.28 11.15C16.0979 11.1201 15.9121 11.1201 15.73 11.15C15.5952 11.1762 15.468 11.232 15.3573 11.3133C15.2467 11.3945 15.1554 11.4993 15.09 11.62C14.9887 11.7996 14.9209 11.9961 14.89 12.2H17C17.1 12.2 17.13 12.2 17.12 12.06C17.12 11.9613 17.1067 11.8647 17.08 11.77L17.04 11.82Z" fill="#757575"/>
</svg>
