<svg width="24" height="24" viewBox="0 0 24 24" fill="none" xmlns="http://www.w3.org/2000/svg">
<path d="M12.5097 13.2135C12.5557 12.4135 12.9477 11.7075 13.5397 11.2075C14.1607 10.6912 14.9442 10.4114 15.7517 10.4175C16.6017 10.4175 17.3827 10.7175 17.9627 11.2075C18.5547 11.7075 18.9457 12.4135 18.9907 13.2125C19.0357 14.0355 18.7057 14.7985 18.1257 15.3655C17.4862 15.9746 16.6348 16.311 15.7517 16.3035C14.8679 16.3115 14.0157 15.9751 13.3757 15.3655C12.7957 14.7985 12.4647 14.0355 12.5097 13.2135ZM7.34972 14.8305C7.35572 15.1445 7.45572 15.7525 7.60572 16.2285C7.93037 17.2522 8.47395 18.1929 9.19872 18.9855C9.97623 19.8415 10.926 20.5234 11.9857 20.9865C13.1386 21.4946 14.3858 21.7536 15.6457 21.7465C16.9053 21.7479 18.1512 21.4849 19.3027 20.9745C20.361 20.506 21.3097 19.8213 22.0877 18.9645C22.8128 18.1704 23.356 17.2279 23.6797 16.2025C23.9906 15.2091 24.076 14.159 23.9297 13.1285C23.79 12.141 23.4438 11.1942 22.9137 10.3495C22.4226 9.56387 21.7955 8.87206 21.0617 8.30646H21.0637L13.5657 2.54946L13.5457 2.53446C13.0537 2.15646 12.2267 2.15846 11.6857 2.53646C11.1387 2.91846 11.0767 3.55145 11.5627 3.95145L11.5617 3.95246L14.6877 6.49545L5.15772 6.50546H5.14472C4.35672 6.50646 3.59972 7.02345 3.44972 7.67745C3.29572 8.34245 3.82972 8.89445 4.64972 8.89745V8.89945L9.47972 8.88946L0.859723 15.5065L0.825723 15.5315C0.0127227 16.1535 -0.249277 17.1895 0.262723 17.8445C0.782723 18.5115 1.88772 18.5125 2.70972 17.8485L7.41372 13.9995C7.41372 13.9995 7.34372 14.5195 7.34972 14.8305ZM19.4397 16.5715C18.4697 17.5595 17.1137 18.1195 15.6447 18.1215C14.1747 18.1255 12.8177 17.5695 11.8477 16.5835C11.3895 16.1238 11.036 15.5705 10.8117 14.9615C10.6058 14.3886 10.5244 13.7784 10.573 13.1715C10.6216 12.5647 10.7992 11.9752 11.0937 11.4425C11.3866 10.9158 11.778 10.4503 12.2467 10.0715C13.1887 9.30345 14.3877 8.88846 15.6427 8.88646C16.8987 8.88446 18.0977 9.29646 19.0407 10.0615C19.5207 10.4525 19.9107 10.9155 20.1927 11.4285C20.4841 11.9544 20.6619 12.5355 20.7147 13.1345C20.7689 13.7483 20.6873 14.3666 20.4757 14.9455C20.2522 15.5558 19.8981 16.1106 19.4397 16.5715Z" fill="#757575"/>
</svg>
