<svg width="24" height="24" viewBox="0 0 24 24" fill="none" xmlns="http://www.w3.org/2000/svg">
<path d="M19.0005 1.5H5.0001C3.06705 1.5 1.5 3.06705 1.5 5.0001V19.0005C1.5 20.9335 3.06705 22.5006 5.0001 22.5006H19.0005C20.9335 22.5006 22.5006 20.9335 22.5006 19.0005V5.0001C22.5006 3.06705 20.9335 1.5 19.0005 1.5Z" fill="#757575"/>
<path d="M11.3797 16.0234C10.4686 16.0234 9.88896 15.4706 9.88896 14.7696C9.88896 11.7694 17.7785 11.1688 17.7785 7.98261C17.7785 6.03892 15.527 5.20117 12.6529 5.20117C10.9046 5.20117 8.92783 5.52476 7.09194 6.10376V9.90469C9.79743 7.93414 12.8034 7.09061 14.7397 7.09061C15.9572 7.09061 16.7833 7.4303 16.7833 8.03897C16.7833 10.5466 5.90234 10.1493 5.90234 15.5679C5.90234 17.6448 7.33047 18.8348 9.3397 18.8348C12.3788 18.8348 14.6776 15.8813 16.3974 12.2811L16.7458 12.4062C15.8401 14.6063 13.9658 17.0186 13.6007 18.5694H17.5134V10.5467H16.6098C15.2981 13.397 13.3759 16.0235 11.38 16.0235" fill="black"/>
</svg>
