<svg width="372" height="372" viewBox="0 0 372 372" fill="none" xmlns="http://www.w3.org/2000/svg">
<rect x="0.5" y="0.5" width="371" height="371" rx="63.5" fill="white"/>
<rect x="0.5" y="0.5" width="371" height="371" rx="63.5" stroke="black"/>
<path d="M217.639 180.616C217.639 173.346 223.532 167.452 230.803 167.452C238.073 167.452 243.966 173.346 243.966 180.616V272.763H217.639V180.616Z" fill="#222222"/>
<rect x="114.961" y="159.554" width="21.0622" height="142.17" rx="10.5311" transform="rotate(-90 114.961 159.554)" fill="#222222"/>
<rect x="86" y="130.593" width="31.5933" height="200.091" rx="13.1639" transform="rotate(-90 86 130.593)" fill="#222222"/>
<path d="M172.881 180.616C172.881 173.346 178.775 167.452 186.045 167.452C193.315 167.452 199.209 173.346 199.209 180.616V272.763H172.881V180.616Z" fill="#222222"/>
<path d="M128.125 180.616C128.125 173.346 134.019 167.452 141.289 167.452C148.559 167.452 154.453 173.346 154.453 180.616V272.763H128.125V180.616Z" fill="#222222"/>
</svg>
