<svg width="24" height="24" viewBox="0 0 24 24" fill="none" xmlns="http://www.w3.org/2000/svg">
<g clip-path="url(#clip0_653_213)">
<path fill-rule="evenodd" clip-rule="evenodd" d="M21.8346 11.8133L21.7521 11.8943L13.0461 20.4308C13.0203 20.456 12.9997 20.486 12.9855 20.5192C12.9713 20.5524 12.9638 20.588 12.9633 20.6241C12.9629 20.6602 12.9696 20.696 12.9831 20.7295C12.9965 20.763 13.0164 20.7935 13.0416 20.8193L13.0461 20.8238L14.8341 22.5788C14.9902 22.7312 15.0796 22.9392 15.0827 23.1574C15.0858 23.3755 15.0024 23.586 14.8506 23.7428L14.8356 23.7578C14.6746 23.9149 14.4584 24.0029 14.2334 24.0029C14.0084 24.0029 13.7922 23.9149 13.6311 23.7578L11.8431 22.0058C11.659 21.8268 11.5126 21.6128 11.4126 21.3762C11.3127 21.1397 11.2612 20.8856 11.2612 20.6288C11.2612 20.372 11.3127 20.1178 11.4126 19.8813C11.5126 19.6448 11.659 19.4307 11.8431 19.2518L20.5506 10.7138C21.0196 10.2567 21.288 9.63219 21.2967 8.9774C21.3054 8.32261 21.0538 7.69114 20.5971 7.22177L20.5506 7.17377L20.4996 7.12577C20.017 6.65576 19.3702 6.3925 18.6965 6.39194C18.0228 6.39138 17.3755 6.65357 16.8921 7.12277L9.72064 14.1578H9.71764L9.62014 14.2553C9.45905 14.4124 9.24293 14.5004 9.01789 14.5004C8.79286 14.5004 8.57673 14.4124 8.41564 14.2553C8.25975 14.1027 8.17065 13.8945 8.16784 13.6764C8.16503 13.4582 8.24873 13.2479 8.40064 13.0913L8.41564 13.0763L15.6891 5.94077C16.6641 4.98677 16.6836 3.42377 15.7296 2.44727L15.6861 2.40227C15.203 1.93177 14.5553 1.66848 13.8809 1.66848C13.2065 1.66848 12.5588 1.93177 12.0756 2.40227L2.45164 11.8448C2.29062 12.0015 2.07482 12.0891 1.85014 12.0891C1.62547 12.0891 1.40967 12.0015 1.24864 11.8448C1.09255 11.6924 1.00318 11.4843 1.00008 11.2662C0.996991 11.048 1.08043 10.8375 1.23214 10.6808L1.24864 10.6658L10.8741 1.22177C11.6792 0.438346 12.7583 0 13.8816 0C15.005 0 16.084 0.438346 16.8891 1.22177C17.8341 2.14127 18.2826 3.45677 18.0936 4.76177C19.4136 4.57427 20.7486 5.01077 21.7026 5.94227L21.7536 5.99177C22.1412 6.36861 22.4506 6.81812 22.6644 7.3146C22.8781 7.81108 22.9919 8.34482 22.9993 8.8853C23.0067 9.42578 22.9075 9.96242 22.7074 10.4646C22.5073 10.9667 22.2102 11.4245 21.8331 11.8118M19.2966 9.48227C19.4525 9.32966 19.5416 9.12151 19.5444 8.90337C19.5473 8.68523 19.4636 8.47485 19.3116 8.31827L19.2966 8.30327C19.1356 8.14614 18.9194 8.05819 18.6944 8.05819C18.4694 8.05819 18.2532 8.14614 18.0921 8.30327L10.9746 15.2858C10.4915 15.7563 9.84378 16.0196 9.16939 16.0196C8.49501 16.0196 7.84728 15.7563 7.36414 15.2858C7.13158 15.0593 6.94593 14.7892 6.81779 14.491C6.68966 14.1928 6.62155 13.8722 6.61737 13.5476C6.61319 13.223 6.67302 12.9008 6.79344 12.5994C6.91385 12.2979 7.09249 12.0231 7.31914 11.7908L7.36564 11.7443L14.4861 4.76177C14.6422 4.60936 14.7316 4.40132 14.7347 4.18318C14.7378 3.96504 14.6544 3.75455 14.5026 3.59777L14.4861 3.58277C14.3251 3.42564 14.1089 3.33769 13.8839 3.33769C13.6589 3.33769 13.4427 3.42564 13.2816 3.58277L6.16114 10.5638C5.76684 10.9472 5.45342 11.4058 5.2394 11.9125C5.02538 12.4191 4.91511 12.9635 4.91511 13.5135C4.91511 14.0635 5.02538 14.6079 5.2394 15.1146C5.45342 15.6212 5.76684 16.0798 6.16114 16.4633C6.9665 17.2468 8.04578 17.6852 9.16939 17.6852C10.293 17.6852 11.3723 17.2468 12.1776 16.4633L19.2966 9.48227Z" fill="#757575"/>
</g>
<defs>
<clipPath id="clip0_653_213">
<rect width="24" height="24" fill="white"/>
</clipPath>
</defs>
</svg>
