<svg width="24" height="24" viewBox="0 0 24 24" fill="none" xmlns="http://www.w3.org/2000/svg">
<path d="M23.751 18.4581C22.896 18.6756 22.3673 18.4675 21.8929 17.755C20.8279 16.1594 19.6523 14.6369 18.5179 13.0862C18.3716 12.8856 18.2198 12.6887 18.0304 12.4394C16.6879 14.2506 15.3473 15.9756 14.0891 17.77C13.6391 18.4112 13.1666 18.6906 12.3266 18.4637L17.3741 11.6894L12.6754 5.57123C13.4835 5.41373 14.0423 5.49436 14.5373 6.21811C15.6304 7.81561 16.836 9.33623 18.0379 10.945C19.2473 9.34186 20.4379 7.81936 21.5629 6.23686C22.0148 5.59561 22.5004 5.35186 23.3123 5.58811C22.6973 6.40373 22.0954 7.20623 21.4898 8.00311C20.6723 9.07748 19.8698 10.165 19.0223 11.2169C18.7204 11.5919 18.7691 11.8356 19.0391 12.19C20.6066 14.2506 22.1554 16.3319 23.751 18.4581ZM0.249766 11.5769C0.384766 10.9 0.474766 10.21 0.662266 9.54623C1.78727 5.52811 6.39977 3.85748 9.56852 6.34748C11.4248 7.80811 11.886 9.86686 11.7941 12.1881H1.33164C1.17414 16.3525 4.17227 18.8669 7.99352 17.5844C9.33414 17.1344 10.1235 16.0844 10.5191 14.7719C10.7198 14.1137 11.0516 14.0106 11.6704 14.1981C11.3535 15.8406 10.6354 17.2131 9.13539 18.0719C6.88539 19.3581 3.67352 18.9419 1.98414 17.155C0.986641 16.105 0.562891 14.7981 0.375391 13.3862C0.347266 13.1612 0.289141 12.94 0.244141 12.7169C0.247891 12.3369 0.249766 11.9569 0.249766 11.5769ZM1.35039 11.2975H10.806C10.7441 8.28623 8.86914 6.14686 6.30602 6.12811C3.49352 6.10561 1.47227 8.19436 1.35039 11.2975Z" fill="#757575"/>
</svg>
