<svg width="24" height="24" viewBox="0 0 24 24" fill="none" xmlns="http://www.w3.org/2000/svg">
<path d="M7.70805 10.1762C7.70205 10.3695 7.72772 10.5585 7.78505 10.7432C7.84105 10.9012 7.91105 11.0539 7.99505 11.2012C8.02505 11.2445 8.04172 11.2922 8.04505 11.3442C8.04167 11.3843 8.02827 11.4229 8.00607 11.4564C7.98388 11.49 7.95362 11.5174 7.91805 11.5362L7.50405 11.8022C7.45485 11.837 7.39631 11.8562 7.33605 11.8572C7.29878 11.8566 7.26204 11.8483 7.22813 11.8328C7.19423 11.8173 7.1639 11.795 7.13905 11.7672C7.04844 11.6793 6.96855 11.5809 6.90105 11.4742C6.83131 11.3512 6.76594 11.2258 6.70505 11.0982C6.47505 11.3782 6.18205 11.6032 5.84905 11.7562C5.51605 11.9092 5.15105 11.9862 4.78305 11.9802C4.30473 12.0052 3.83584 11.8406 3.47805 11.5222C3.31658 11.3637 3.19058 11.1727 3.10835 10.9619C3.02613 10.7511 2.98956 10.5252 3.00105 10.2992C2.99305 10.0512 3.04105 9.8052 3.14305 9.5792C3.24505 9.3512 3.39805 9.1492 3.59105 8.9872C4.05169 8.63908 4.62047 8.46484 5.19705 8.4952C5.43172 8.4952 5.66539 8.5112 5.89805 8.5432C6.14405 8.5772 6.38905 8.6252 6.64805 8.6802V8.2152C6.6666 8.03358 6.64893 7.85008 6.59606 7.67534C6.54319 7.50059 6.45618 7.33808 6.34005 7.1972C6.03409 6.96919 5.65357 6.8646 5.27405 6.9042C5.03774 6.90553 4.80231 6.93303 4.57205 6.9862C4.33272 7.04153 4.09939 7.1142 3.87205 7.2042L3.64005 7.2862H3.54105C3.44305 7.2862 3.40105 7.2182 3.40105 7.0882V6.7742C3.39401 6.6987 3.40858 6.62274 3.44305 6.5552C3.49591 6.49678 3.56071 6.4504 3.63305 6.4192C3.89572 6.2952 4.16905 6.19953 4.45305 6.1322C4.78538 6.04778 5.12718 6.00644 5.47005 6.0092C6.08628 5.9551 6.6996 6.14103 7.18205 6.5282C7.37805 6.7382 7.52705 6.9862 7.62005 7.2552C7.71315 7.52378 7.74792 7.80912 7.72205 8.0922L7.70805 10.1762ZM5.05605 11.1462C5.29672 11.1462 5.53072 11.1075 5.75805 11.0302C5.99805 10.9502 6.21105 10.8092 6.37505 10.6202C6.48345 10.5076 6.56065 10.3687 6.59905 10.2172C6.64505 10.0352 6.66639 9.85087 6.66305 9.6642V9.3772C6.45682 9.33406 6.24807 9.304 6.03805 9.2872H5.42105C5.07896 9.26017 4.7378 9.34969 4.45305 9.5412C4.34371 9.62906 4.25723 9.74206 4.20099 9.87056C4.14475 9.99907 4.12041 10.1393 4.13005 10.2792C4.11855 10.4035 4.13394 10.5289 4.17517 10.6467C4.21641 10.7646 4.28254 10.8722 4.36905 10.9622C4.56559 11.1102 4.81187 11.1761 5.05605 11.1462ZM10.3101 11.8292C10.2213 11.8376 10.1322 11.8162 10.0571 11.7682C9.98649 11.6995 9.93778 11.6115 9.91705 11.5152L8.38705 6.5962C8.35723 6.51237 8.33874 6.42493 8.33205 6.3362C8.33072 6.23287 8.38205 6.18053 8.48605 6.1792H9.13105C9.21994 6.17106 9.309 6.19288 9.38405 6.2412C9.45205 6.3112 9.49805 6.3992 9.51705 6.4942L10.6181 10.7432L11.6491 6.5012C11.6591 6.40421 11.7043 6.31423 11.7761 6.2482C11.8537 6.19977 11.9449 6.178 12.0361 6.1862H12.5611C12.6544 6.17791 12.7479 6.19963 12.8281 6.2482C12.8935 6.31866 12.9373 6.4065 12.9541 6.5012L13.9711 10.7432L15.1011 6.4802C15.1195 6.38484 15.1654 6.29692 15.2331 6.2272C15.3082 6.17923 15.3973 6.15776 15.4861 6.1662H16.0961C16.1177 6.16401 16.1395 6.16654 16.1601 6.17362C16.1806 6.18069 16.1994 6.19215 16.2151 6.2072C16.2304 6.22204 16.2422 6.24022 16.2495 6.26033C16.2568 6.28043 16.2594 6.30194 16.2571 6.3232C16.2588 6.35718 16.2588 6.39122 16.2571 6.4252C16.2571 6.4252 16.2571 6.5152 16.2151 6.5832L14.6301 11.5002C14.6113 11.5957 14.5651 11.6836 14.4971 11.7532C14.421 11.7992 14.3327 11.8205 14.2441 11.8142H13.6841C13.592 11.824 13.4995 11.7998 13.4241 11.7462C13.3547 11.6785 13.3103 11.5893 13.2981 11.4932L12.2811 7.3952L11.2711 11.4932C11.2585 11.5895 11.2137 11.6786 11.1441 11.7462C11.0678 11.7982 10.976 11.8222 10.8841 11.8142L10.3101 11.8292ZM18.7261 11.9932C18.3863 11.9948 18.0475 11.9579 17.7161 11.8832C17.456 11.8327 17.2038 11.7479 16.9661 11.6312C16.883 11.5918 16.8124 11.5302 16.7621 11.4532C16.7349 11.3956 16.7206 11.3329 16.7201 11.2692V10.9482C16.7201 10.8169 16.7694 10.7509 16.8681 10.7502C16.9098 10.7435 16.9523 10.7435 16.9941 10.7502L17.1551 10.8182C17.3804 10.9162 17.6144 10.9892 17.8571 11.0372C18.1131 11.0919 18.3724 11.1192 18.6351 11.1192C18.9671 11.1392 19.2981 11.0652 19.5891 10.9072C19.6937 10.8448 19.7802 10.7562 19.8401 10.6502C19.8991 10.5453 19.9288 10.4265 19.9261 10.3062C19.9287 10.2241 19.9144 10.1423 19.8841 10.0659C19.8539 9.98956 19.8082 9.92022 19.7501 9.8622C19.5593 9.70048 19.3332 9.58575 19.0901 9.5272L18.1441 9.2332C17.7341 9.1332 17.3681 8.9082 17.0991 8.5912C16.8875 8.32756 16.7712 8.0002 16.7691 7.6622C16.7657 7.4229 16.8264 7.18707 16.9451 6.9792C17.0621 6.7732 17.2221 6.5942 17.4151 6.4532C17.6251 6.3022 17.8631 6.1912 18.1161 6.1252C18.3851 6.0492 18.6641 6.0132 18.9441 6.0152C19.0887 6.0052 19.2337 6.0052 19.3791 6.0152L19.8061 6.0842L20.1781 6.1862L20.4521 6.2962C20.5254 6.3382 20.5907 6.39053 20.6481 6.4532C20.6881 6.51853 20.7067 6.5892 20.7041 6.6652V6.9652C20.7041 7.10187 20.6551 7.1702 20.5571 7.1702C20.4683 7.15929 20.3824 7.13145 20.3041 7.0882C19.9052 6.91891 19.4753 6.8351 19.0421 6.8422C18.7417 6.82795 18.4426 6.88914 18.1721 7.0202C18.0727 7.07908 17.9912 7.16374 17.9361 7.2652C17.8808 7.36564 17.8555 7.47981 17.8631 7.5942C17.8623 7.67886 17.8794 7.76273 17.9134 7.84029C17.9473 7.91784 17.9973 7.98734 18.0601 8.0442C18.2671 8.2062 18.5061 8.3242 18.7611 8.3932L19.6871 8.6802C20.0773 8.78043 20.4289 8.99451 20.6971 9.2952C20.8981 9.5512 21.0041 9.8672 20.9991 10.1902C21.0024 10.4458 20.9445 10.6986 20.8301 10.9272C20.7181 11.1472 20.5541 11.3392 20.3531 11.4872C20.1444 11.6514 19.9066 11.7746 19.6521 11.8502C19.3454 11.946 19.0263 11.9966 18.7051 12.0002L18.7261 11.9932ZM1.95605 14.0042C2.04505 13.8932 2.20905 13.8632 2.35905 13.9542C5.32215 15.6262 8.66777 16.5023 12.0701 16.4972C14.6151 16.4881 17.1338 15.9809 19.4841 15.0042C19.7051 14.9122 19.9261 14.9792 20.0341 15.1312C20.0623 15.1701 20.082 15.2145 20.0918 15.2616C20.1017 15.3086 20.1014 15.3573 20.0911 15.4042C20.0619 15.514 19.9931 15.6091 19.8981 15.6712L19.8951 15.6732C17.5129 17.265 14.7101 18.11 11.8451 18.1002C8.22582 18.1228 4.72579 16.8076 2.01705 14.4072C1.95491 14.356 1.91365 14.2838 1.90105 14.2042C1.896 14.1689 1.89828 14.1329 1.90774 14.0985C1.91721 14.0641 1.93365 14.032 1.95605 14.0042Z" fill="#757575"/>
<path d="M21.9834 13.2354C21.9199 13.171 21.8426 13.1218 21.7574 13.0914C21.6442 13.0462 21.527 13.0114 21.4074 12.9874C21.0793 12.9219 20.745 12.8924 20.4104 12.8994C19.6564 12.9104 18.7604 13.0824 18.0764 13.5744C17.9644 13.6544 17.8814 13.7694 17.9014 13.8894C17.9234 14.0254 18.0564 14.0814 18.1874 14.0814L18.2114 14.0784C18.5864 14.0314 19.1764 13.9584 19.7114 13.9444C19.9814 13.9364 20.2344 13.9444 20.4344 13.9784C20.5351 13.9944 20.6188 14.0164 20.6854 14.0444C20.7367 14.062 20.7824 14.0931 20.8174 14.1344C20.8401 14.1604 20.8568 14.2084 20.8674 14.2784C20.8761 14.3491 20.8754 14.4358 20.8654 14.5384C20.8454 14.7444 20.7884 14.9954 20.7124 15.2624C20.5954 15.6774 20.4364 16.1194 20.3114 16.4704L20.2144 16.7424C20.1886 16.8023 20.1816 16.8686 20.1944 16.9324C20.2008 16.9631 20.2141 16.992 20.2331 17.0169C20.2521 17.0418 20.2765 17.0622 20.3044 17.0764C20.4154 17.1304 20.5524 17.0854 20.6594 16.9924C21.3034 16.4424 21.7094 15.5984 21.9194 14.8574C22.0244 14.4874 22.0824 14.1374 22.0954 13.8574C22.1021 13.7161 22.0974 13.5934 22.0814 13.4894C22.0729 13.3973 22.039 13.3094 21.9834 13.2354Z" fill="#757575"/>
</svg>
