<svg width="24" height="24" viewBox="0 0 24 24" fill="none" xmlns="http://www.w3.org/2000/svg">
<path d="M16.238 2C15.4612 2.00661 14.689 2.11966 13.943 2.336L13.89 2.353C13.4194 2.26923 12.9429 2.22309 12.465 2.215C11.483 2.198 10.64 2.437 9.95997 2.833C9.28997 2.601 7.89997 2.2 6.43497 2.28C5.41497 2.336 4.30197 2.646 3.47697 3.517C2.65397 4.387 2.21897 5.735 2.31097 7.568C2.33597 8.074 2.48097 8.899 2.71897 9.968C2.95897 11.036 3.29397 12.287 3.71297 13.428C4.13197 14.569 4.59197 15.594 5.30897 16.291C5.66797 16.641 6.16097 16.933 6.74297 16.909C7.15097 16.893 7.51997 16.714 7.83797 16.449C7.99297 16.653 8.15897 16.743 8.30997 16.825C8.49997 16.929 8.68497 17 8.87697 17.047C9.22097 17.133 9.80997 17.247 10.5 17.13C10.735 17.091 10.983 17.014 11.23 16.905C11.238 17.18 11.25 17.449 11.26 17.722C11.294 18.585 11.316 19.382 11.575 20.082C11.617 20.196 11.731 20.784 12.181 21.303C12.631 21.822 13.513 22.148 14.517 21.933C15.225 21.781 16.126 21.508 16.724 20.656C17.316 19.814 17.583 18.606 17.635 16.648C17.647 16.5542 17.6623 16.4608 17.681 16.368L17.821 16.381H17.838C18.594 16.415 19.414 16.308 20.099 15.989C20.706 15.709 21.165 15.424 21.499 14.92C21.613 14.7628 21.6822 14.5775 21.699 14.384C21.724 14.124 21.575 13.718 21.328 13.53C20.832 13.153 20.52 13.297 20.186 13.366C19.8553 13.4387 19.5213 13.4793 19.184 13.488C20.0882 11.9665 20.7777 10.3273 21.233 8.617C21.466 7.717 21.597 6.887 21.608 6.161C21.618 5.435 21.559 4.793 21.124 4.237C19.765 2.5 17.854 2.02 16.376 2.003H16.238V2ZM16.199 2.533C17.598 2.52 19.384 2.913 20.667 4.552C20.955 4.92 21.041 5.458 21.031 6.122C21.021 6.784 20.898 7.578 20.674 8.447C20.1612 10.3658 19.346 12.1907 18.259 13.853C18.3003 13.8823 18.3443 13.9063 18.391 13.925C18.633 14.025 19.184 14.111 20.283 13.885C20.559 13.827 20.762 13.788 20.972 13.948C21.0225 13.9916 21.0624 14.0461 21.0888 14.1075C21.1151 14.1688 21.1271 14.2353 21.124 14.302C21.1123 14.403 21.0751 14.4993 21.016 14.582C20.804 14.901 20.384 15.203 19.846 15.452C19.371 15.674 18.689 15.79 18.084 15.797C17.8071 15.808 17.5302 15.7763 17.263 15.703L17.248 15.697C17.156 16.58 16.945 18.324 16.808 19.12C16.698 19.762 16.505 20.272 16.138 20.654C15.771 21.035 15.252 21.265 14.553 21.415C13.688 21.601 13.058 21.401 12.651 21.058C12.245 20.717 12.059 20.264 11.948 19.986C11.871 19.794 11.831 19.546 11.793 19.214C11.7503 18.8168 11.7216 18.4182 11.707 18.019C11.681 17.319 11.6726 16.6183 11.682 15.917C11.3207 16.2478 10.8718 16.4676 10.389 16.55C9.92444 16.6215 9.45013 16.596 8.99597 16.475C8.84564 16.4363 8.70033 16.3803 8.56297 16.308C8.42097 16.232 8.28597 16.146 8.19597 15.977C8.14307 15.8799 8.12608 15.7673 8.14797 15.659C8.17558 15.549 8.23976 15.4517 8.32997 15.383C8.49497 15.249 8.71297 15.174 9.04297 15.106C9.64197 14.983 9.85097 14.899 9.97797 14.798C10.087 14.711 10.209 14.536 10.426 14.279L10.424 14.245C10.0362 14.2331 9.6565 14.131 9.31497 13.947C8.78282 14.5117 8.26856 15.093 7.77297 15.69C7.44597 16.082 7.08397 16.307 6.70297 16.323C6.32197 16.339 5.97597 16.147 5.68297 15.863C5.09697 15.293 4.62897 14.314 4.22197 13.208C3.81497 12.101 3.48397 10.868 3.24897 9.818C3.01297 8.768 2.87397 7.922 2.85397 7.513C2.76697 5.778 3.17297 4.609 3.86797 3.872C4.56497 3.134 5.51997 2.855 6.45097 2.802C8.12097 2.706 9.70797 3.288 10.029 3.413C10.648 2.993 11.444 2.732 12.439 2.748C12.912 2.755 13.382 2.816 13.84 2.93L13.857 2.923C14.059 2.85167 14.2643 2.792 14.473 2.744C15.0387 2.61191 15.6171 2.54183 16.198 2.535L16.199 2.533ZM16.326 3.092H16.204C15.7253 3.09867 15.252 3.152 14.784 3.252C15.7175 3.67268 16.5331 4.31661 17.159 5.127C17.5433 5.61602 17.8608 6.1541 18.103 6.727C18.1936 6.94833 18.2563 7.13167 18.291 7.277C18.308 7.349 18.321 7.41 18.324 7.473C18.3288 7.51326 18.3254 7.55409 18.314 7.593L18.309 7.604C18.334 8.334 18.154 8.829 18.132 9.526C18.115 10.031 18.244 10.624 18.276 11.272C18.306 11.88 18.233 12.548 17.838 13.204L17.933 13.324C18.978 11.678 19.731 9.858 20.133 8.305C20.348 7.469 20.462 6.712 20.472 6.112C20.48 5.512 20.368 5.077 20.226 4.895C19.108 3.465 17.594 3.102 16.326 3.092ZM12.334 3.304C11.349 3.307 10.643 3.604 10.107 4.05C9.55397 4.51 9.18297 5.142 8.93997 5.787C8.70458 6.43484 8.56085 7.11239 8.51297 7.8L8.52297 7.793C8.8703 7.59916 9.24286 7.45444 9.62997 7.363C10.048 7.268 10.5 7.238 10.908 7.396C11.316 7.554 11.653 7.926 11.776 8.492C12.363 11.206 11.594 12.215 11.31 12.977C11.2026 13.2537 11.1106 13.535 11.034 13.821C11.07 13.813 11.106 13.803 11.142 13.799C11.342 13.783 11.499 13.849 11.592 13.889C11.877 14.008 12.072 14.256 12.178 14.539C12.206 14.6143 12.226 14.6933 12.238 14.776C12.2496 14.8101 12.255 14.846 12.254 14.882C12.2225 15.9202 12.2261 16.9591 12.265 17.997C12.285 18.445 12.313 18.84 12.348 19.152C12.384 19.462 12.435 19.699 12.468 19.779C12.574 20.046 12.73 20.395 13.012 20.633C13.293 20.869 13.698 21.028 14.436 20.869C15.076 20.732 15.471 20.541 15.736 20.267C15.998 19.993 16.156 19.611 16.256 19.027C16.408 18.152 16.711 15.614 16.748 15.137C16.731 14.777 16.784 14.5 16.899 14.289C17.0037 14.1036 17.1648 13.9565 17.359 13.869C17.439 13.833 17.513 13.809 17.573 13.791C17.5087 13.6988 17.4413 13.6087 17.371 13.521C17.1424 13.2439 16.9555 12.935 16.816 12.604C16.749 12.4677 16.6776 12.3336 16.602 12.202C16.491 12.002 16.351 11.752 16.204 11.471C15.911 10.908 15.592 10.227 15.426 9.563C15.261 8.899 15.236 8.213 15.66 7.728C16.035 7.298 16.694 7.12 17.682 7.22C17.652 7.133 17.635 7.06 17.586 6.943C17.3628 6.41702 17.0713 5.92277 16.719 5.473C15.881 4.403 14.525 3.341 12.43 3.307H12.334V3.304ZM6.79997 3.348C6.69397 3.348 6.58863 3.35133 6.48397 3.358C5.64197 3.406 4.84597 3.65 4.27697 4.253C3.70697 4.857 3.33197 5.846 3.41397 7.483C3.42897 7.793 3.56397 8.662 3.79597 9.693C4.02597 10.725 4.35397 11.939 4.74797 13.012C5.14197 14.085 5.61897 15.018 6.07297 15.459C6.30097 15.68 6.49897 15.769 6.67897 15.762C6.85997 15.754 7.07797 15.649 7.34397 15.33C7.82797 14.7453 8.33063 14.1763 8.85197 13.623C8.48216 13.3026 8.19913 12.894 8.02906 12.4352C7.85899 11.9764 7.80737 11.4821 7.87897 10.998C7.95355 10.4527 7.98298 9.90215 7.96697 9.352C7.95697 8.908 7.92497 8.613 7.92497 8.429V8.404C7.92338 7.44438 8.09024 6.49193 8.41797 5.59C8.65097 4.97 8.99797 4.34 9.51897 3.83C9.00797 3.662 8.09897 3.405 7.11597 3.357C7.0104 3.35121 6.90469 3.34821 6.79897 3.348H6.79997ZM17.131 7.75C16.565 7.758 16.248 7.903 16.081 8.094C15.845 8.365 15.823 8.84 15.969 9.425C16.115 10.011 16.417 10.665 16.7 11.21C16.842 11.483 16.98 11.728 17.09 11.927C17.202 12.127 17.284 12.268 17.334 12.389C17.3776 12.4924 17.427 12.5932 17.482 12.691C17.701 12.228 17.74 11.774 17.718 11.301C17.688 10.715 17.553 10.116 17.573 9.509C17.595 8.8 17.735 8.339 17.748 7.79C17.5433 7.76395 17.3373 7.75059 17.131 7.75ZM10.269 7.846C10.0962 7.84814 9.92424 7.86893 9.75597 7.908C9.42118 7.99076 9.09851 8.11647 8.79597 8.282C8.6933 8.33667 8.59597 8.4 8.50397 8.472L8.48597 8.488C8.49097 8.61 8.51597 8.905 8.52597 9.339C8.53597 9.814 8.52297 10.42 8.43197 11.076C8.23197 12.501 9.26697 13.681 10.482 13.683C10.552 13.39 10.669 13.093 10.786 12.781C11.124 11.869 11.79 11.204 11.229 8.609C11.138 8.184 10.956 8.013 10.706 7.916C10.5659 7.86577 10.4177 7.84204 10.269 7.846ZM16.867 8.016H16.908C16.9585 8.01657 17.0088 8.02261 17.058 8.034C17.104 8.044 17.1426 8.05933 17.174 8.08C17.19 8.0903 17.2038 8.10378 17.2145 8.1196C17.2251 8.13542 17.2324 8.15325 17.236 8.172V8.178C17.2374 8.21781 17.227 8.25716 17.206 8.291C17.1808 8.33647 17.1499 8.37849 17.114 8.416C17.0299 8.50934 16.9168 8.57168 16.793 8.593C16.6723 8.60682 16.5507 8.57625 16.451 8.507C16.4103 8.47948 16.3739 8.44612 16.343 8.408C16.3152 8.3791 16.2967 8.34252 16.29 8.303C16.2881 8.28371 16.2902 8.26425 16.2962 8.24583C16.3023 8.22741 16.312 8.21044 16.325 8.196C16.3521 8.16448 16.3855 8.13894 16.423 8.121C16.5619 8.05466 16.7131 8.01821 16.867 8.014V8.016ZM10.35 8.156C10.394 8.156 10.4403 8.15933 10.489 8.166C10.616 8.184 10.729 8.218 10.816 8.268C10.8586 8.29 10.8953 8.31967 10.926 8.357C10.9433 8.37633 10.956 8.39833 10.964 8.423C10.9713 8.44767 10.974 8.47267 10.972 8.498C10.964 8.54623 10.9421 8.59108 10.909 8.627C10.8754 8.66918 10.8352 8.70565 10.79 8.735C10.6818 8.81194 10.5487 8.84548 10.417 8.829C10.2821 8.80736 10.1586 8.74033 10.067 8.639C10.0277 8.59854 9.99442 8.55276 9.96797 8.503C9.94021 8.45894 9.92822 8.40676 9.93397 8.355C9.94697 8.265 10.021 8.218 10.094 8.193C10.1761 8.16601 10.2626 8.15448 10.349 8.159L10.35 8.156ZM17.9 14.276H17.898C17.775 14.32 17.674 14.339 17.589 14.376C17.5033 14.4093 17.4326 14.4725 17.39 14.554C17.338 14.65 17.293 14.82 17.306 15.109C17.3446 15.1357 17.3856 15.1553 17.429 15.168C17.572 15.211 17.811 15.239 18.078 15.235C18.609 15.229 19.264 15.105 19.611 14.944C19.896 14.811 20.161 14.638 20.397 14.431C19.235 14.671 18.579 14.607 18.177 14.441C18.0769 14.3993 17.9836 14.343 17.9 14.274V14.276ZM11.208 14.354H11.19C11.146 14.358 11.082 14.373 10.958 14.51C10.668 14.835 10.566 15.04 10.327 15.23C10.087 15.42 9.77697 15.522 9.15597 15.65C9.02343 15.6737 8.89441 15.714 8.77197 15.77C8.79597 15.79 8.79297 15.794 8.82997 15.813C8.91997 15.863 9.03797 15.908 9.13197 15.932C9.39797 15.998 9.83697 16.076 10.294 15.998C10.752 15.92 11.228 15.701 11.634 15.132C11.704 15.034 11.711 14.889 11.654 14.732C11.595 14.577 11.468 14.442 11.378 14.405C11.3241 14.38 11.2668 14.3622 11.208 14.354Z" fill="#757575"/>
</svg>
