<svg width="24" height="24" viewBox="0 0 24 24" fill="none" xmlns="http://www.w3.org/2000/svg">
<path d="M10.9991 2.59752V13.9695H3.89911C3.22911 13.9695 2.82911 13.1855 3.25611 12.6335L10.9991 2.59752ZM12.9991 8.03053V2.33252C12.9991 0.521525 10.7021 -0.291475 9.58111 1.16152L1.67211 11.4095C0.245109 13.2595 1.54711 15.9685 3.89911 15.9685H10.9991V21.6665C10.9991 23.4775 13.2951 24.2905 14.4171 22.8375L22.3251 12.5885C23.7521 10.7395 22.4511 8.03053 20.0981 8.03053H12.9991ZM12.9991 10.0305H20.0991C20.7681 10.0305 21.1681 10.8145 20.7421 11.3665L12.9991 21.4015V10.0305Z" fill="#757575"/>
</svg>
