<svg width="24" height="24" viewBox="0 0 24 24" fill="none" xmlns="http://www.w3.org/2000/svg">
<path d="M16.405 5.50149C16.29 5.50149 16.212 5.51549 16.131 5.53449V5.54749H16.145C16.199 5.65149 16.291 5.72749 16.359 5.82049C16.413 5.92749 16.459 6.03449 16.513 6.14049L16.527 6.12549C16.621 6.05949 16.667 5.95349 16.667 5.79249C16.627 5.74549 16.621 5.69849 16.587 5.65249C16.547 5.58549 16.461 5.55249 16.407 5.49949L16.405 5.50149ZM5.77 18.6955H4.843C4.81675 17.2223 4.72666 15.7509 4.573 14.2855H4.565L3.155 18.6955H2.45L1.05 14.2855H1.04C0.930559 15.7532 0.86553 17.2239 0.845 18.6955H0C0.0553333 16.7288 0.192 14.8855 0.41 13.1655H1.56L2.895 17.2295H2.903L4.25 13.1655H5.345C5.587 15.1815 5.72967 17.0248 5.773 18.6955H5.77ZM9.787 14.6155C9.409 16.6615 8.91167 18.1482 8.295 19.0755C7.813 19.7915 7.28533 20.1492 6.712 20.1485C6.56 20.1485 6.37133 20.1025 6.146 20.0105V19.5165C6.25667 19.5338 6.38533 19.5425 6.532 19.5425C6.8 19.5425 7.01567 19.4685 7.179 19.3205C7.37567 19.1405 7.474 18.9388 7.474 18.7155C7.474 18.5602 7.39733 18.2455 7.244 17.7715L6.23 14.6155H7.14L7.867 16.9755C8.03167 17.5115 8.1 17.8858 8.072 18.0985C8.472 17.0332 8.75033 15.8722 8.907 14.6155H9.787ZM22.112 18.6955H19.482V13.1655H20.367V18.0155H22.112V18.6955ZM18.792 18.8305L17.776 18.3305C17.8667 18.2552 17.9517 18.1718 18.031 18.0805C18.4637 17.5738 18.6797 16.8228 18.679 15.8275C18.679 13.9975 17.9607 13.0822 16.524 13.0815C15.82 13.0815 15.27 13.3138 14.874 13.7785C14.4433 14.2865 14.228 15.0348 14.228 16.0235C14.2273 16.9962 14.4187 17.7095 14.802 18.1635C15.1513 18.5735 15.679 18.7785 16.385 18.7785C16.649 18.7785 16.8907 18.7458 17.11 18.6805L18.435 19.4525L18.795 18.8305H18.792ZM15.5 17.5885C15.2753 17.2278 15.163 16.6492 15.163 15.8525C15.163 14.4592 15.5863 13.7625 16.433 13.7625C16.877 13.7625 17.2027 13.9292 17.41 14.2625C17.634 14.6245 17.746 15.1988 17.746 15.9855C17.746 17.3902 17.3227 18.0928 16.476 18.0935C16.0313 18.0935 15.7053 17.9268 15.498 17.5935L15.5 17.5885ZM13.842 17.1635C13.842 17.6342 13.67 18.0195 13.326 18.3195C12.9833 18.6195 12.522 18.7695 11.942 18.7695C11.399 18.7695 10.878 18.5975 10.369 18.2545L10.606 17.7785C11.0433 17.9978 11.44 18.1072 11.796 18.1065C12.128 18.1065 12.389 18.0332 12.579 17.8865C12.6742 17.8151 12.7511 17.7221 12.8032 17.6152C12.8554 17.5083 12.8814 17.3905 12.879 17.2715C12.879 16.9415 12.649 16.6615 12.231 16.4265C11.843 16.2135 11.068 15.7695 11.068 15.7695C10.646 15.4625 10.436 15.1335 10.436 14.5925C10.436 14.1432 10.5927 13.7815 10.906 13.5075C11.22 13.2302 11.6267 13.0918 12.126 13.0925C12.6387 13.0925 13.1053 13.2292 13.526 13.5025L13.313 13.9785C12.9776 13.8304 12.6156 13.7521 12.249 13.7485C11.9657 13.7485 11.7477 13.8172 11.595 13.9545C11.5181 14.0186 11.4561 14.0987 11.4133 14.1892C11.3705 14.2797 11.3479 14.3784 11.347 14.4785C11.347 14.8065 11.581 15.0885 12.013 15.3285C12.406 15.5435 13.2 15.9985 13.2 15.9985C13.633 16.3035 13.848 16.6285 13.848 17.1665L13.842 17.1635ZM23.224 11.3115C22.689 11.2975 22.274 11.3515 21.927 11.4995C21.827 11.5395 21.667 11.5395 21.653 11.6665C21.708 11.7195 21.716 11.8065 21.763 11.8805C21.843 12.0145 21.981 12.1935 22.109 12.2875C22.2477 12.3988 22.39 12.5022 22.536 12.5975C22.796 12.7575 23.091 12.8525 23.346 13.0135C23.491 13.1075 23.639 13.2265 23.786 13.3265C23.859 13.3765 23.906 13.4665 24 13.4985V13.4785C23.954 13.4185 23.94 13.3315 23.895 13.2645C23.828 13.1975 23.761 13.1375 23.695 13.0715C23.4989 12.8125 23.2646 12.5849 23 12.3965C22.786 12.2505 22.318 12.0465 22.23 11.8015L22.217 11.7875C22.363 11.7745 22.537 11.7215 22.677 11.6815C22.904 11.6215 23.112 11.6345 23.347 11.5755C23.4537 11.5475 23.5603 11.5162 23.667 11.4815V11.4215C23.547 11.3015 23.457 11.1385 23.333 11.0265C22.9866 10.7244 22.6175 10.4492 22.229 10.2035C22.019 10.0695 21.753 9.98349 21.532 9.86949C21.452 9.82949 21.318 9.80949 21.272 9.74249C21.152 9.59649 21.082 9.40249 20.997 9.22849C20.8009 8.84746 20.6184 8.45955 20.45 8.06549C20.33 7.80349 20.257 7.54249 20.11 7.30249C19.42 6.16549 18.673 5.47649 17.524 4.80249C17.277 4.66249 16.981 4.60249 16.668 4.52849C16.501 4.52049 16.334 4.50849 16.168 4.50149C16.058 4.45449 15.952 4.32749 15.858 4.26649C15.478 4.02649 14.494 3.50649 14.214 4.19449C14.034 4.62849 14.481 5.05649 14.636 5.27649C14.751 5.42949 14.896 5.60449 14.976 5.77649C15.023 5.89249 15.036 6.01149 15.083 6.13249C15.189 6.42649 15.29 6.75449 15.43 7.02949C15.503 7.16949 15.583 7.31649 15.677 7.44249C15.731 7.51549 15.823 7.54949 15.844 7.66949C15.75 7.80549 15.744 8.00349 15.69 8.16949C15.45 8.92649 15.544 9.86249 15.884 10.4195C15.991 10.5855 16.246 10.9535 16.587 10.8125C16.887 10.6925 16.821 10.3125 16.907 9.97749C16.927 9.89749 16.914 9.84449 16.955 9.79049V9.80549C17.049 9.99349 17.143 10.1725 17.229 10.3605C17.435 10.6885 17.795 11.0285 18.096 11.2555C18.256 11.3755 18.383 11.5835 18.583 11.6575V11.6375H18.568C18.525 11.5795 18.468 11.5515 18.414 11.5045C18.2874 11.3802 18.1704 11.2465 18.064 11.1045C17.7831 10.7189 17.5333 10.3116 17.317 9.88649C17.207 9.67649 17.115 9.45049 17.027 9.24349C16.987 9.16349 16.987 9.04349 16.92 9.00349C16.82 9.14949 16.673 9.27649 16.6 9.45649C16.473 9.74449 16.46 10.0985 16.412 10.4665C16.385 10.4735 16.398 10.4665 16.385 10.4805C16.171 10.4285 16.098 10.2065 16.018 10.0205C15.818 9.54549 15.785 8.78249 15.958 8.23549C16.005 8.09549 16.205 7.65349 16.125 7.51949C16.083 7.39249 15.951 7.31949 15.878 7.21649C15.7842 7.08236 15.7038 6.93934 15.638 6.78949C15.478 6.41549 15.398 6.00149 15.224 5.62749C15.144 5.45449 15.004 5.27349 14.89 5.11449C14.763 4.93449 14.623 4.80749 14.522 4.59449C14.489 4.52149 14.442 4.40049 14.495 4.32049C14.509 4.26649 14.537 4.24549 14.589 4.23049C14.677 4.15849 14.924 4.25249 15.011 4.29249C15.258 4.39249 15.466 4.48649 15.673 4.62649C15.767 4.69249 15.868 4.81949 15.988 4.85249H16.128C16.342 4.89949 16.583 4.86649 16.783 4.92549C17.138 5.03949 17.458 5.20549 17.745 5.38549C18.6294 5.9503 19.3487 6.73896 19.83 7.67149C19.91 7.82549 19.945 7.96649 20.018 8.12649C20.158 8.45649 20.331 8.78949 20.473 9.10849C20.613 9.42349 20.748 9.74449 20.949 10.0055C21.049 10.1455 21.451 10.2185 21.631 10.2915C21.764 10.3515 21.971 10.4065 22.091 10.4795C22.321 10.6195 22.545 10.7795 22.761 10.9335C22.871 11.0095 23.204 11.1765 23.224 11.3115Z" fill="#757575"/>
</svg>
