<svg width="24" height="24" viewBox="0 0 24 24" fill="none" xmlns="http://www.w3.org/2000/svg">
<path d="M15.282 1.77378C15.4645 2.00009 15.5575 2.30553 15.7427 2.91566L19.8032 16.2537C18.2782 15.4619 16.6412 14.9077 14.9488 14.6102L12.3055 5.67659C12.2846 5.60518 12.2411 5.54247 12.1815 5.49787C12.122 5.45328 12.0496 5.42922 11.9752 5.42931C11.9008 5.42939 11.8284 5.45362 11.769 5.49834C11.7095 5.54307 11.6662 5.60588 11.6455 5.67734L9.03377 14.6057C7.33407 14.9022 5.68981 15.4572 4.1582 16.2516L8.23783 2.91284C8.42458 2.30347 8.51758 1.99859 8.69983 1.77228C8.86079 1.57293 9.07013 1.41814 9.30789 1.32266C9.57658 1.21484 9.89589 1.21484 10.5332 1.21484H13.4475C14.0854 1.21484 14.4047 1.21484 14.6743 1.32341C14.9121 1.41913 15.1212 1.57418 15.282 1.77378ZM15.7676 16.8882C15.0983 17.4608 13.7621 17.8512 12.2233 17.8512C10.3352 17.8512 8.75177 17.263 8.33195 16.4719C8.18195 16.9253 8.1482 17.4439 8.1482 17.7758C8.1482 17.7758 8.04939 19.4023 9.18095 20.5339C9.18093 20.3942 9.20842 20.256 9.26186 20.1269C9.3153 19.9979 9.39364 19.8807 9.4924 19.7819C9.59116 19.6832 9.70841 19.6048 9.83745 19.5514C9.96649 19.498 10.1048 19.4705 10.2445 19.4706C11.2513 19.4706 11.2508 20.3487 11.25 21.0621V21.1251C11.25 22.2075 11.9113 23.1349 12.8518 23.526C12.7068 23.2283 12.6316 22.9014 12.6321 22.5702C12.6321 21.5374 13.2377 21.1536 13.9423 20.7068C14.5028 20.3517 15.1253 19.9568 15.5537 19.1652C15.785 18.7386 15.9059 18.261 15.9053 17.7758C15.9054 17.4745 15.859 17.1752 15.7676 16.8882Z" fill="#757575"/>
</svg>
