<svg width="24" height="24" viewBox="0 0 24 24" fill="none" xmlns="http://www.w3.org/2000/svg">
<path d="M13.8663 0.0937569C12.9966 0.0951865 12.132 0.227027 11.3013 0.484882C9.9568 0.90119 8.73371 1.63831 7.73755 2.63267C6.74139 3.62703 6.00207 4.84879 5.58333 6.19257C6.63042 5.68115 7.75766 5.35362 8.91577 5.22432C9.00327 5.10269 9.09508 4.98426 9.19121 4.86901C9.94506 3.96626 10.9436 3.3004 12.0667 2.95144C13.1899 2.603 14.3897 2.58594 15.5223 2.90232C16.6548 3.21939 17.6718 3.85642 18.4513 4.73701C19.2305 5.61768 19.7386 6.70469 19.9147 7.86732C20.0909 9.03009 19.9278 10.219 19.4452 11.2914C18.9618 12.3633 18.1796 13.2729 17.1922 13.9114C16.7838 14.1752 16.3454 14.3893 15.8863 14.5493C15.9164 14.7955 15.9315 15.0458 15.9316 15.3C15.9324 15.9811 15.8191 16.6574 15.5962 17.301C16.6632 17.0864 17.6802 16.6727 18.594 16.0815C19.9995 15.1727 21.1131 13.8778 21.8011 12.3519C22.4877 10.826 22.7197 9.1344 22.4692 7.47994C22.218 5.82544 21.4944 4.27857 20.3855 3.02532C19.2766 1.77207 17.8303 0.865694 16.2181 0.415319C15.4526 0.200957 14.6613 0.0927581 13.8663 0.0937569ZM13.8781 6.50757C12.6213 6.50757 11.6017 7.52644 11.6017 8.78326C11.6017 10.0401 12.6213 11.0595 13.8781 11.0595C15.135 11.0595 16.1538 10.0401 16.1538 8.78307C16.1537 8.17957 15.9139 7.60082 15.4871 7.17408C15.0604 6.74734 14.4816 6.50772 13.8781 6.50757ZM8.34033 6.77776C8.25683 6.79638 8.17333 6.81638 8.08983 6.83776L8.09208 6.83194L7.96102 6.86851C7.79835 6.90941 7.63691 6.95506 7.4769 7.00538C7.33677 7.04813 7.19779 7.09452 7.06008 7.14451C6.92733 7.19301 6.79596 7.24476 6.66596 7.29976C6.53108 7.35613 6.39777 7.41619 6.26602 7.47994C6.0684 7.57557 6.00446 7.61026 5.87565 7.67982L5.68739 7.77732L5.70427 7.77957C5.57377 7.85044 5.44508 7.92469 5.31821 8.00232C3.91274 8.91053 2.79951 10.2054 2.11233 11.7311C1.42533 13.2576 1.19321 14.9494 1.44371 16.6039C1.69421 18.2584 2.41852 19.8053 3.5274 21.0585C4.63627 22.3118 6.08283 23.2185 7.69496 23.6689C9.30658 24.1202 11.0143 24.096 12.6125 23.5993C14.2106 23.1034 15.6314 22.1562 16.7038 20.8718C17.4387 19.9927 17.9923 18.9769 18.3328 17.8828C17.2859 18.3974 16.158 18.7272 14.9988 18.8576C14.9107 18.9802 14.8183 19.0996 14.7219 19.2158C13.9675 20.1181 12.9688 20.7837 11.8456 21.1326C10.7227 21.4813 9.523 21.4981 8.39077 21.1809C7.2582 20.8646 6.24114 20.2278 5.46192 19.3471C4.68269 18.4664 4.17447 17.3794 3.9984 16.2167C3.82224 15.0539 3.98525 13.865 4.46789 12.7926C4.95083 11.7205 5.73319 10.8107 6.7209 10.1726C7.12155 9.91355 7.55124 9.70241 8.00114 9.54357C7.97837 9.32556 7.96686 9.10652 7.96665 8.88732C7.96665 8.14538 8.09846 7.43494 8.34015 6.77794L8.34033 6.77776ZM5.68758 7.77751H5.68683V7.77826L5.68758 7.77751ZM10.0507 13.0245C8.79389 13.0245 7.77427 14.0434 7.77427 15.3002C7.77425 15.5991 7.83311 15.8952 7.9475 16.1714C8.0619 16.4476 8.22958 16.6985 8.44097 16.9099C8.65236 17.1213 8.90332 17.289 9.17952 17.4034C9.45572 17.5178 9.75175 17.5767 10.0507 17.5766C11.3075 17.5766 12.3264 16.5572 12.3264 15.3002C12.3262 14.6967 12.0864 14.1179 11.6597 13.6912C11.233 13.2645 10.6542 13.0247 10.0507 13.0245Z" fill="#757575"/>
</svg>
