<svg width="24" height="24" viewBox="0 0 24 24" fill="none" xmlns="http://www.w3.org/2000/svg">
<path d="M11.782 5.72059C10.6089 5.70466 9.47103 6.12134 8.58564 6.89108C7.70025 7.66081 7.12937 8.72967 6.982 9.89359C7.26603 9.40963 7.66445 9.00275 8.14234 8.70863C8.62023 8.4145 9.16298 8.24212 9.723 8.20659C11.412 8.20659 12.697 10.1786 13.481 10.7936C14.2294 11.3851 15.1136 11.7804 16.0534 11.9437C16.9932 12.107 17.959 12.033 18.863 11.7286C20.863 11.0906 21.797 8.86359 22 7.80759C21.031 9.18659 19.56 10.0146 17.741 9.03859C16.488 8.36559 15.551 5.60059 11.782 5.72059ZM6.8 11.9796C5.62688 11.963 4.48878 12.3793 3.60327 13.1489C2.71776 13.9186 2.14697 14.9876 2 16.1516C2.2844 15.6671 2.68346 15.2599 3.16209 14.9657C3.64072 14.6716 4.18429 14.4995 4.745 14.4646C6.434 14.4646 7.719 16.4366 8.503 17.0516C9.25137 17.6431 10.1356 18.0384 11.0754 18.2017C12.0152 18.365 12.981 18.291 13.885 17.9866C15.885 17.3486 16.818 15.1216 17.022 14.0656C16.052 15.4446 14.582 16.2736 12.763 15.2966C11.51 14.6236 10.573 11.8536 6.8 11.9796Z" fill="#757575"/>
</svg>
