<svg width="24" height="24" viewBox="0 0 24 24" fill="none" xmlns="http://www.w3.org/2000/svg">
<path d="M11.3585 3.76079C10.298 3.70454 9.10629 3.86729 7.94079 4.27154C6.08829 4.91429 4.08429 5.92529 2.64354 7.24229C0.932044 8.80979 0.657544 10.1748 0.770044 10.7448C1.17054 12.7698 4.02504 14.0898 5.16804 15.0663L5.00979 15.151C4.43679 15.4293 2.31054 16.5228 1.76604 17.6988C1.15104 19.0323 1.86804 19.9863 2.33904 20.1168C3.80904 20.5158 5.26254 19.819 6.07029 18.6408C6.87879 17.4618 6.78129 15.9228 6.40779 15.2208C6.40479 15.211 6.39729 15.2043 6.39354 15.1938C6.54154 15.1078 6.69154 15.0213 6.84354 14.9343C7.13529 14.7655 7.42029 14.6118 7.67004 14.4768C7.52904 14.8488 7.42704 15.2965 7.37379 15.9423C7.31079 16.6983 7.63029 17.6763 8.04504 18.0618C8.22804 18.2305 8.44854 18.2343 8.58504 18.2343C9.07029 18.2343 9.28854 17.8428 9.53004 17.3748C9.82854 16.804 10.0925 16.141 10.0925 16.141C10.0925 16.141 9.76254 17.9343 10.667 17.9343C10.997 17.9343 11.327 17.5188 11.4755 17.3058V17.3088C11.4755 17.3088 11.4808 17.2953 11.4988 17.2675C11.534 17.2158 11.5513 17.1858 11.5513 17.1858V17.1753C11.6848 16.9518 11.978 16.4403 12.4175 15.595C12.9868 14.5023 13.5305 13.1373 13.5305 13.1373C13.583 13.4373 13.6558 13.7325 13.7488 14.023C13.847 14.3493 14.0555 14.707 14.2205 15.0543C14.087 15.2328 14.0053 15.3355 14.0053 15.3355C14.0053 15.3385 14.0068 15.341 14.0098 15.343C13.904 15.4803 13.784 15.628 13.661 15.772C13.211 16.2948 12.6763 16.894 12.6065 17.0658C12.5218 17.2683 12.5428 17.4183 12.704 17.536C12.824 17.6253 13.0363 17.6388 13.2568 17.6223C13.5407 17.6082 13.82 17.5452 14.0825 17.4363C14.3341 17.3474 14.5727 17.2253 14.792 17.0733C15.2315 16.7568 15.4993 16.3023 15.4745 15.7045C15.4595 15.3745 15.35 15.0445 15.2165 14.7348C15.2555 14.68 15.299 14.6223 15.3365 14.5638C15.7941 13.898 16.2062 13.2022 16.5703 12.481C16.6228 12.781 16.6953 13.0763 16.7878 13.3668C16.8733 13.645 17.0383 13.951 17.1898 14.2503C16.5365 14.7693 16.1308 15.3708 15.9898 15.766C15.7295 16.498 15.935 16.8273 16.3183 16.903C16.4908 16.9375 16.736 16.8595 16.9183 16.7845C17.1918 16.6955 17.4448 16.568 17.6773 16.402C18.1168 16.0855 18.5428 15.643 18.5143 15.0415C18.5038 14.77 18.4273 14.4978 18.3253 14.2368C18.8773 14.0103 19.5928 13.8865 20.5078 13.9893C22.4653 14.2128 22.8485 15.409 22.775 15.907C22.7015 16.4058 22.2898 16.684 22.1525 16.7665C22.0153 16.849 21.974 16.8805 21.9845 16.9428C22.0018 17.032 22.064 17.0283 22.1803 17.0073C22.3423 16.9795 23.2063 16.6023 23.2453 15.6768C23.3015 14.509 22.154 13.2243 20.1193 13.234H20.1163C19.4105 13.234 18.7138 13.3923 18.08 13.6983C17.8723 13.2895 17.6578 12.9318 17.6233 12.6633C17.5813 12.3513 17.5363 12.166 17.5858 11.7955C17.6345 11.4243 17.8558 10.8978 17.852 10.8595C17.8483 10.8213 17.8025 10.633 17.3495 10.6293C16.8965 10.6255 16.505 10.7148 16.46 10.8318C16.38 11.0453 16.318 11.2638 16.274 11.4873C16.193 11.8893 15.3673 13.327 14.9 14.0763C14.7455 13.7838 14.6158 13.5265 14.588 13.3203C14.546 13.0075 14.4995 12.8223 14.5483 12.4518C14.5978 12.0805 14.8205 11.554 14.8168 11.5158C14.813 11.4775 14.7673 11.2893 14.3143 11.2855C13.8613 11.2818 13.469 11.371 13.4233 11.488C13.3783 11.6043 13.328 11.8788 13.2373 12.1435C13.1458 12.4083 12.0463 14.8015 11.7583 15.4233C11.6426 15.674 11.5203 15.9215 11.3915 16.1658C11.3773 16.1943 11.3675 16.2108 11.3615 16.225C11.3713 16.2078 11.3788 16.1905 11.3788 16.1973C11.3015 16.345 11.2558 16.4268 11.2558 16.4268V16.4298C11.1958 16.54 11.1283 16.6413 11.0975 16.6413C11.0765 16.6413 11.03 16.3518 11.108 15.9565C11.273 15.1248 11.663 13.8325 11.66 13.7875C11.6563 13.7635 11.732 13.54 11.402 13.42C11.0818 13.3068 10.967 13.4958 10.9393 13.4958C10.9115 13.4958 10.8898 13.5648 10.8898 13.5648C10.8898 13.5648 11.243 12.1075 10.2073 12.1075C9.55929 12.1075 8.65929 12.8013 8.21754 13.4298C7.94004 13.5775 7.33854 13.8978 6.70554 14.2383L5.97954 14.6298L5.92929 14.578C4.67079 13.2655 2.34804 12.337 2.44629 10.573C2.48154 9.93104 2.71104 8.24429 6.91404 6.19529C10.3595 4.51829 13.1135 4.97804 13.5875 6.00179C14.27 7.46279 12.1145 10.1823 8.53704 10.5738C7.17354 10.7215 6.54504 10.1455 6.36579 9.95279C6.17979 9.75029 6.15054 9.73904 6.08079 9.77654C5.96379 9.83804 6.03804 10.0173 6.08079 10.1238C6.18579 10.3953 6.65604 10.8205 7.40454 11.0613C8.06229 11.2713 9.57204 11.4475 11.5063 10.7163C13.6783 9.89729 15.3373 7.67429 14.8415 5.76704C14.5265 4.55579 13.1248 3.85379 11.3585 3.76079ZM10.205 12.967C10.261 12.971 10.3008 12.992 10.3243 13.03C10.4473 13.2333 9.89679 14.7295 9.75579 15.0663C9.53079 15.6063 9.05529 16.9818 8.76654 16.909C8.52054 16.8475 8.36904 15.799 8.71704 14.767C8.89254 14.248 9.26529 13.63 9.48729 13.3893C9.75354 13.0975 10.0408 12.9543 10.205 12.967ZM17.51 14.6635C17.552 14.7845 17.5743 14.9085 17.5768 15.0355C17.573 15.8095 17.0068 16.0975 16.667 16.2175C16.5965 16.1695 16.6055 16.0075 16.841 15.505C16.9325 15.31 17.144 14.98 17.51 14.6635ZM5.70354 15.5163C5.99529 16.561 5.71404 17.482 5.03229 18.2088C4.38579 18.8988 3.47829 19.1605 3.08829 18.9408C2.66979 18.703 2.83554 17.6853 3.63354 16.9488C4.11879 16.5018 4.74504 16.0893 5.15979 15.835C5.25504 15.7803 5.39079 15.6978 5.55954 15.598L5.60229 15.5748C5.63379 15.5545 5.66829 15.5373 5.70354 15.5163ZM14.5363 15.6363C14.5363 15.6535 14.5408 15.6715 14.5408 15.6918C14.5363 16.3068 13.9303 16.7223 13.6558 16.8873H13.6588V16.8888C13.5635 16.9368 13.475 16.9668 13.4338 16.9428C13.4015 16.9255 13.4728 16.8603 13.4728 16.8603C13.4728 16.8603 13.961 16.3473 14.1538 16.1133C14.2663 15.976 14.396 15.8148 14.5363 15.6363Z" fill="#757575"/>
</svg>
