<svg width="24" height="24" viewBox="0 0 24 24" fill="none" xmlns="http://www.w3.org/2000/svg">
<path d="M11.345 2.40563L11.042 2.43263C8.202 2.68863 5.541 4.22163 3.855 6.57663C2.92346 7.86997 2.31797 9.36912 2.09 10.9466C2.01 11.4946 2 11.6566 2 12.4016C2 13.1466 2.01 13.3086 2.09 13.8586C2.633 17.6136 5.306 20.7686 8.93 21.9376C9.58 22.1466 10.264 22.2886 11.042 22.3756C11.345 22.4086 12.655 22.4086 12.958 22.3756C14.301 22.2256 15.438 21.8946 16.561 21.3216C16.733 21.2336 16.766 21.2096 16.743 21.1906C16.727 21.1786 15.994 20.1956 15.114 19.0066L13.515 16.8466L11.511 13.8816C10.8448 12.8898 10.1725 11.9021 9.494 10.9186C9.486 10.9166 9.478 12.2336 9.474 13.8426C9.468 16.6596 9.466 16.7726 9.431 16.8396C9.39651 16.9174 9.33557 16.9805 9.259 17.0176C9.196 17.0476 9.142 17.0546 8.847 17.0546H8.508L8.418 16.9976C8.36363 16.9613 8.31899 16.9122 8.288 16.8546L8.246 16.7666L8.25 12.8476L8.256 8.92663L8.316 8.85063C8.3563 8.80181 8.40551 8.76109 8.461 8.73063C8.541 8.69163 8.573 8.68763 8.911 8.68763C9.31 8.68763 9.376 8.70363 9.48 8.81763C9.51 8.84763 10.594 10.4826 11.892 12.4506L15.838 18.4266L17.421 20.8246L17.501 20.7726C18.211 20.3106 18.961 19.6546 19.556 18.9696C20.8161 17.5279 21.6335 15.7533 21.91 13.8586C21.99 13.3086 22 13.1466 22 12.4016C22 11.6576 21.99 11.4946 21.91 10.9456C21.367 7.19063 18.694 4.03563 15.07 2.86663C14.3922 2.65112 13.6943 2.50504 12.987 2.43063C12.8 2.41063 11.507 2.39063 11.345 2.40563ZM15.439 8.45363C15.533 8.50063 15.609 8.59063 15.636 8.68363C15.652 8.73463 15.656 9.82163 15.652 12.2706L15.646 15.7856L15.026 14.8356L14.405 13.8856V11.3306C14.405 9.67863 14.413 8.75063 14.425 8.70563C14.439 8.65376 14.4633 8.60525 14.4965 8.56299C14.5296 8.52072 14.571 8.48557 14.618 8.45963C14.698 8.41863 14.728 8.41463 15.034 8.41463C15.324 8.41463 15.374 8.41863 15.439 8.45363Z" fill="#757575"/>
</svg>
