<svg width="24" height="24" viewBox="0 0 24 24" fill="none" xmlns="http://www.w3.org/2000/svg">
<path d="M19.1307 3H4.86867C3.91367 3 3.13867 3.787 3.13867 4.758V19.242C3.13867 20.212 3.91367 21 4.86867 21H19.1307C20.0867 21 20.8607 20.213 20.8607 19.242V4.758C20.8607 3.788 20.0867 3 19.1307 3ZM13.4187 12.984H11.2037V19.418H9.43867V12.984H7.22267V11.543H13.4187V12.984ZM19.1307 18.261C18.9917 18.578 18.7537 18.813 18.4727 19C18.1747 19.1843 17.8467 19.3149 17.5037 19.386C17.1167 19.4674 16.7221 19.5077 16.3267 19.506C15.9205 19.5073 15.515 19.4704 15.1157 19.396C14.7669 19.3346 14.4288 19.2235 14.1117 19.066V17.377L14.0457 17.324L14.1117 17.309V17.377C14.4057 17.615 14.7297 17.7967 15.0837 17.922C15.4307 18.055 15.8107 18.122 16.1917 18.122C16.4337 18.122 16.6177 18.101 16.7807 18.062C16.9271 18.0286 17.0672 17.9719 17.1957 17.894C17.2979 17.8321 17.3826 17.745 17.4417 17.641C17.5028 17.5254 17.5303 17.395 17.5211 17.2646C17.5119 17.1341 17.4664 17.0089 17.3897 16.903C17.2962 16.7708 17.1789 16.6571 17.0437 16.568C16.8806 16.4526 16.7064 16.3538 16.5237 16.273C16.3167 16.178 16.1057 16.079 15.8667 15.981C15.2777 15.7 14.8137 15.419 14.5167 15.031C14.2157 14.681 14.0667 14.223 14.0667 13.696C14.0667 13.274 14.1467 12.936 14.3087 12.641C14.4817 12.325 14.6857 12.093 14.9667 11.903C15.2437 11.71 15.5547 11.569 15.9357 11.481C16.3157 11.393 16.6977 11.348 17.1127 11.348C17.5277 11.348 17.8747 11.372 18.1857 11.421C18.4967 11.471 18.7877 11.548 19.0507 11.65V13.302C18.9212 13.2071 18.7821 13.126 18.6357 13.06C18.326 12.9257 17.9998 12.8332 17.6657 12.785C17.5167 12.7627 17.3663 12.7517 17.2157 12.752C17.0298 12.7495 16.8442 12.7686 16.6627 12.809C16.5158 12.8383 16.375 12.8928 16.2467 12.97C16.1421 13.0325 16.0532 13.118 15.9867 13.22C15.9248 13.3178 15.8925 13.4313 15.8937 13.547C15.8937 13.6763 15.9283 13.7933 15.9977 13.898C16.0663 13.9993 16.1647 14.098 16.2927 14.194C16.4067 14.285 16.5627 14.377 16.7427 14.468C16.9497 14.559 17.1367 14.651 17.3657 14.746C17.6767 14.879 17.9537 15.027 18.1957 15.168C18.4387 15.308 18.6427 15.473 18.8187 15.66C19.0057 15.835 19.1407 16.047 19.2347 16.293C19.3287 16.539 19.3767 16.816 19.3767 17.136C19.3767 17.593 19.2687 17.945 19.1307 18.261Z" fill="#757575"/>
</svg>
