<svg width="24" height="24" viewBox="0 0 24 24" fill="none" xmlns="http://www.w3.org/2000/svg">
<path d="M19.1996 3.59961H4.79586C4.13586 3.59961 3.59961 4.14336 3.59961 4.81086V19.1884C3.59961 19.8559 4.13586 20.3996 4.79586 20.3996H19.1996C19.8596 20.3996 20.3996 19.8559 20.3996 19.1884V4.81086C20.3996 4.14336 19.8596 3.59961 19.1996 3.59961ZM8.67711 17.9996H6.18711V9.98211H8.68086V17.9996H8.67711ZM7.43211 5.99961C8.23086 5.99961 8.87586 6.64461 8.87586 7.44336C8.87586 8.24211 8.23086 8.88711 7.43211 8.88711C6.63336 8.88711 5.98836 8.24211 5.98836 7.44336C5.98836 6.64461 6.63336 5.99961 7.43211 5.99961ZM18.0109 17.9996H15.5209V14.0996C15.5209 13.1696 15.5021 11.9734 14.2271 11.9734C12.9296 11.9734 12.7309 12.9859 12.7309 14.0321V17.9996H10.2409V9.98211H12.6296V11.0771H12.6634C12.9971 10.4471 13.8109 9.78336 15.0221 9.78336C17.5421 9.78336 18.0109 11.4446 18.0109 13.6046V17.9996Z" fill="#757575"/>
</svg>
