<svg width="24" height="24" viewBox="0 0 24 24" fill="none" xmlns="http://www.w3.org/2000/svg">
<path d="M20.3996 5.99961C20.3996 4.67586 19.3234 3.59961 17.9996 3.59961H5.99961C4.67586 3.59961 3.59961 4.67586 3.59961 5.99961V17.9996C3.59961 19.3234 4.67586 20.3996 5.99961 20.3996H17.9996C19.3234 20.3996 20.3996 19.3234 20.3996 17.9996V5.99961ZM13.5671 17.6884C13.5671 17.6209 13.5671 17.4634 13.5709 17.2534C13.5746 16.8259 13.5746 16.1734 13.5746 15.6146C13.5746 15.0296 13.3796 14.6584 13.1509 14.4634C14.5384 14.3096 16.0009 14.1184 16.0009 11.7221C16.0009 11.0396 15.7571 10.6984 15.3596 10.2596C15.4234 10.0984 15.6371 9.43461 15.2959 8.57211C14.7746 8.41086 13.5821 9.24336 13.5821 9.24336C12.5846 8.96211 11.4596 8.96211 10.4621 9.24336C10.4621 9.24336 9.26961 8.41086 8.74836 8.57211C8.40711 9.43086 8.61711 10.0946 8.68461 10.2596C8.28711 10.6984 8.09961 11.0396 8.09961 11.7221C8.09961 14.1071 9.49836 14.3096 10.8859 14.4634C10.7059 14.6246 10.5446 14.9021 10.4884 15.2996C10.1321 15.4609 9.22086 15.7384 8.67711 14.7784C8.33586 14.1859 7.72086 14.1371 7.72086 14.1371C7.11336 14.1296 7.67961 14.5196 7.67961 14.5196C8.08461 14.7071 8.36961 15.4271 8.36961 15.4271C8.73336 16.5409 10.4734 16.1659 10.4734 16.1659C10.4734 16.5034 10.4771 16.9796 10.4771 17.3134C10.4771 17.4934 10.4809 17.6359 10.4809 17.6884C10.4809 17.8496 10.3684 18.0446 10.0496 17.9884C7.57461 17.1596 5.84211 14.8046 5.84211 12.0521C5.84211 8.60961 8.47461 5.99586 11.9171 5.99586C15.3596 5.99586 18.1496 8.60961 18.1496 12.0521C18.1534 14.8046 16.4734 17.1634 13.9984 17.9884C13.6834 18.0446 13.5671 17.8496 13.5671 17.6884ZM10.1734 15.6334C10.1659 15.5771 10.2146 15.5284 10.2859 15.5134C10.3571 15.5059 10.4246 15.5359 10.4321 15.5846C10.4434 15.6334 10.3946 15.6821 10.3196 15.6971C10.2484 15.7121 10.1809 15.6821 10.1734 15.6334ZM9.83211 15.7534C9.74961 15.7609 9.69336 15.7196 9.69336 15.6634C9.69336 15.6146 9.74961 15.5734 9.82461 15.5734C9.89586 15.5659 9.96336 15.6071 9.96336 15.6634C9.96336 15.7121 9.90711 15.7534 9.83211 15.7534ZM9.29586 15.6709C9.22461 15.6559 9.17586 15.5996 9.19086 15.5509C9.20586 15.5021 9.28086 15.4796 9.34461 15.4946C9.41961 15.5171 9.46836 15.5734 9.44961 15.6221C9.43461 15.6709 9.35961 15.6934 9.29586 15.6709ZM8.82711 15.3971C8.77086 15.3484 8.75586 15.2771 8.79336 15.2434C8.82711 15.2021 8.89836 15.2096 8.95461 15.2659C9.00336 15.3146 9.02211 15.3896 8.98836 15.4196C8.95461 15.4609 8.88336 15.4534 8.82711 15.3971ZM8.50836 15.0221C8.46711 14.9659 8.46711 14.9021 8.50836 14.8759C8.54961 14.8421 8.61336 14.8684 8.64711 14.9246C8.68836 14.9809 8.68836 15.0484 8.64711 15.0784C8.61336 15.1009 8.54961 15.0784 8.50836 15.0221ZM8.27211 14.6921C8.23086 14.6434 8.22336 14.5871 8.25711 14.5609C8.29086 14.5271 8.34711 14.5459 8.38836 14.5834C8.42961 14.6321 8.43711 14.6884 8.40336 14.7146C8.36961 14.7484 8.31336 14.7296 8.27211 14.6921ZM8.04711 14.4521C7.99836 14.4296 7.97586 14.3884 7.99086 14.3546C8.00586 14.3321 8.04711 14.3209 8.09586 14.3396C8.14461 14.3659 8.16711 14.4071 8.15211 14.4371C8.13711 14.4709 8.08836 14.4784 8.04711 14.4521Z" fill="#757575"/>
</svg>
