<svg width="24" height="24" viewBox="0 0 24 24" fill="none" xmlns="http://www.w3.org/2000/svg">
<path d="M9.82086 7.36836C8.38461 8.04336 7.31586 9.36711 6.98211 10.9571C7.21086 10.9609 9.32211 10.9684 11.7221 10.3309C10.8709 8.82336 9.95586 7.55211 9.82086 7.36836ZM10.7996 7.02711C10.9421 7.21836 11.8721 8.48586 12.7121 10.0271C14.5346 9.34086 15.3034 8.30586 15.3971 8.17461C14.1371 7.05711 12.4234 6.63336 10.7996 7.02711ZM14.0021 16.7246C13.9271 16.2746 13.6271 14.7071 12.9071 12.8396C10.8409 13.5446 9.38961 14.9546 8.85336 16.0496C10.3721 17.2346 12.3521 17.4259 14.0021 16.7246ZM12.1421 11.1221C9.58461 11.8871 7.10211 11.8571 6.87711 11.8496V12.0071C6.87711 13.3234 7.37586 14.5234 8.19336 15.4346C9.02586 14.0134 10.7096 12.5134 12.5621 11.9921C12.4346 11.6996 12.2921 11.4109 12.1459 11.1221H12.1421ZM14.8609 16.2559C16.0121 15.4796 16.8296 14.2459 17.0584 12.8209C16.8859 12.7646 15.4721 12.3446 13.8671 12.6034C14.5384 14.4446 14.8084 15.9446 14.8609 16.2559ZM13.5559 11.7934C15.2621 11.5796 16.9571 11.9209 17.1259 11.9584C17.1146 10.7471 16.6834 9.63711 15.9671 8.76711C15.8584 8.91336 14.9996 10.0121 13.1059 10.7884C13.2859 11.1559 13.4171 11.4559 13.5559 11.7934ZM17.9996 3.59961H5.99961C4.67586 3.59961 3.59961 4.67586 3.59961 5.99961V17.9996C3.59961 19.3234 4.67586 20.3996 5.99961 20.3996H17.9996C19.3234 20.3996 20.3996 19.3234 20.3996 17.9996V5.99961C20.3996 4.67586 19.3234 3.59961 17.9996 3.59961ZM11.9996 5.99961C15.3146 5.99961 17.9996 8.68461 17.9996 11.9996C17.9996 15.3146 15.3146 17.9996 11.9996 17.9996C8.68461 17.9996 5.99961 15.3146 5.99961 11.9996C5.99961 8.68461 8.68461 5.99961 11.9996 5.99961Z" fill="#757575"/>
</svg>
