<svg width="24" height="24" viewBox="0 0 24 24" fill="none" xmlns="http://www.w3.org/2000/svg">
<path d="M9.42336 14.3396C10.0684 14.3396 10.5934 14.1109 10.5934 13.3871C10.5934 12.6484 10.1546 12.3596 9.45711 12.3559H7.73211V14.3396H9.42336ZM9.22086 9.47961H7.73586V11.1596H9.33711C9.90336 11.1596 10.3046 10.9121 10.3046 10.3009C10.3046 9.63711 9.79086 9.47961 9.22086 9.47961ZM14.0771 12.2846H16.4096C16.3459 11.5909 15.9859 11.1709 15.2659 11.1709C14.5796 11.1709 14.1221 11.5984 14.0771 12.2846ZM17.9996 3.59961H5.99961C4.67586 3.59961 3.59961 4.67586 3.59961 5.99961V17.9996C3.59961 19.3234 4.67586 20.3996 5.99961 20.3996H17.9996C19.3234 20.3996 20.3996 19.3234 20.3996 17.9996V5.99961C20.3996 4.67586 19.3234 3.59961 17.9996 3.59961ZM16.7059 9.33711H13.7884V8.62836H16.7059V9.33711ZM10.8634 11.5384C11.7484 11.7896 12.1759 12.5696 12.1759 13.4734C12.1759 14.9359 10.9496 15.5621 9.64086 15.5696H6.14961V8.36961H9.54336C10.7771 8.36961 11.8459 8.71836 11.8459 10.1509C11.8459 10.8746 11.5084 11.2309 10.8634 11.5384ZM15.3146 10.0909C16.9459 10.0909 17.8496 11.3771 17.8496 12.9184C17.8496 12.9784 17.8459 13.0421 17.8421 13.1059C17.8421 13.1359 17.8384 13.1621 17.8384 13.1884H14.0809C14.0809 14.0209 14.5196 14.5121 15.3596 14.5121C15.7946 14.5121 16.3534 14.2796 16.4921 13.8334H17.7559C17.3659 15.0296 16.5596 15.5884 15.3146 15.5884C13.6721 15.5884 12.6484 14.4746 12.6484 12.8509C12.6484 11.2834 13.7246 10.0909 15.3146 10.0909Z" fill="#757575"/>
</svg>
